<svg width="28" height="34" viewBox="0 0 28 34" fill="none" xmlns="http://www.w3.org/2000/svg">
<path d="M26.6 9V25C26.6 31.4 25 33 18.6 33H9C2.6 33 1 31.4 1 25V9C1 2.6 2.6 1 9 1H18.6C25 1 26.6 2.6 26.6 9Z" stroke="#292D32" stroke-width="2" stroke-linecap="round" stroke-linejoin="round"/>
<path d="M17 6.6001H10.6" stroke="#292D32" stroke-width="2" stroke-linecap="round" stroke-linejoin="round"/>
<path d="M13.7999 28.3599C15.1696 28.3599 16.28 27.2495 16.28 25.8799C16.28 24.5103 15.1696 23.3999 13.7999 23.3999C12.4303 23.3999 11.3199 24.5103 11.3199 25.8799C11.3199 27.2495 12.4303 28.3599 13.7999 28.3599Z" stroke="#292D32" stroke-width="2" stroke-linecap="round" stroke-linejoin="round"/>
</svg>
