<svg width="27" height="27" viewBox="0 0 27 27" fill="none" xmlns="http://www.w3.org/2000/svg">
<path d="M18.0937 8.25005C16.976 8.24621 15.8685 8.46281 14.8346 8.88745C13.8006 9.31209 12.8606 9.93644 12.0682 10.7248C11.2758 11.5131 10.6466 12.4499 10.2167 13.4817C9.7867 14.5134 9.56441 15.6198 9.5625 16.7376V25.3126C9.5625 25.6606 9.70078 25.9945 9.94692 26.2406C10.1931 26.4868 10.5269 26.6251 10.875 26.6251H13.9375C14.2856 26.6251 14.6194 26.4868 14.8656 26.2406C15.1117 25.9945 15.25 25.6606 15.25 25.3126V16.7376C15.2497 16.34 15.3332 15.9469 15.495 15.5838C15.6569 15.2207 15.8934 14.8957 16.1893 14.6302C16.4851 14.3646 16.8336 14.1644 17.212 14.0425C17.5904 13.9207 17.9902 13.8799 18.3854 13.923C19.0942 14.0122 19.7455 14.3585 20.2159 14.8961C20.6863 15.4337 20.9431 16.1253 20.9375 16.8396V25.3126C20.9375 25.6606 21.0758 25.9945 21.3219 26.2406C21.5681 26.4868 21.9019 26.6251 22.25 26.6251H25.3125C25.6606 26.6251 25.9944 26.4868 26.2406 26.2406C26.4867 25.9945 26.625 25.6606 26.625 25.3126V16.7376C26.6231 15.6198 26.4008 14.5134 25.9708 13.4817C25.5409 12.4499 24.9117 11.5131 24.1193 10.7248C23.3269 9.93644 22.3869 9.31209 21.3529 8.88745C20.319 8.46281 19.2115 8.24621 18.0937 8.25005Z" fill="#0A66C2"/>
<path d="M5.625 9.56226H1.6875C0.962626 9.56226 0.375 10.1499 0.375 10.8748V25.3123C0.375 26.0371 0.962626 26.6248 1.6875 26.6248H5.625C6.34987 26.6248 6.9375 26.0371 6.9375 25.3123V10.8748C6.9375 10.1499 6.34987 9.56226 5.625 9.56226Z" fill="#0A66C2"/>
<path d="M3.65625 6.9375C5.46843 6.9375 6.9375 5.46843 6.9375 3.65625C6.9375 1.84407 5.46843 0.375 3.65625 0.375C1.84407 0.375 0.375 1.84407 0.375 3.65625C0.375 5.46843 1.84407 6.9375 3.65625 6.9375Z" fill="#0A66C2"/>
</svg>
