<svg width="37" height="37" viewBox="0 0 37 37" fill="none" xmlns="http://www.w3.org/2000/svg">
<path d="M34.5774 11.5682L29.0133 6.00401C26.9136 3.90433 24.0265 4.00935 22.6092 6.26651L19.5122 11.1658L29.4332 21.0867L34.3325 17.9897C36.4497 16.6424 36.5721 13.5454 34.5774 11.5682Z" stroke="#292D32" stroke-width="2" stroke-linecap="round" stroke-linejoin="round"/>
<path d="M29.4332 21.0694L29.8532 28.2783C30.2556 32.3027 28.8558 33.7025 25.0414 34.1575L9.78368 35.9597C6.56416 36.3271 4.25451 34.0175 4.63945 30.8155L6.35419 16.3276" stroke="#292D32" stroke-width="2" stroke-linecap="round" stroke-linejoin="round"/>
<path d="M19.5122 11.1658L16.4501 10.9734" stroke="#292D32" stroke-width="2" stroke-linecap="round" stroke-linejoin="round"/>
<path d="M6.73914 33.8599L12.3033 28.2781" stroke="#292D32" stroke-width="2" stroke-linecap="round" stroke-linejoin="round"/>
<path d="M16.7476 8.87382C16.7476 9.59121 16.6426 10.3086 16.4502 10.9735C16.2577 11.6734 15.9777 12.3208 15.6103 12.9332C15.1904 13.6331 14.6655 14.263 14.0531 14.7879C12.6708 16.0127 10.8685 16.7476 8.87382 16.7476C7.98145 16.7476 7.14158 16.6077 6.35419 16.3277C4.56946 15.7328 3.08217 14.508 2.13731 12.9332C1.41992 11.7434 1 10.3436 1 8.87382C1 6.38919 2.13733 4.16701 3.95706 2.73222C5.30435 1.64739 7.01909 1 8.87382 1C13.2307 1 16.7476 4.51697 16.7476 8.87382Z" stroke="#292D32" stroke-width="2" stroke-miterlimit="10" stroke-linecap="round" stroke-linejoin="round"/>
<path d="M8.90881 11.8134V5.93433" stroke="#292D32" stroke-width="2" stroke-miterlimit="10" stroke-linecap="round" stroke-linejoin="round"/>
<path d="M11.7783 8.87378H5.89923" stroke="#292D32" stroke-width="2" stroke-miterlimit="10" stroke-linecap="round" stroke-linejoin="round"/>
</svg>
