<svg width="34" height="34" viewBox="0 0 34 34" fill="none" xmlns="http://www.w3.org/2000/svg">
<path d="M24.0104 33.1132H17.7818C16.8639 33.1132 14.8642 32.8345 13.7988 31.7691L8.83231 27.9336L10.3403 25.9831L15.4215 29.9169C15.8313 30.3103 16.8639 30.6381 17.7818 30.6381H24.0104C25.4856 30.6381 27.0755 29.458 27.4034 28.1303L31.37 16.0829C31.6322 15.3617 31.5831 14.7061 31.2389 14.2307C30.8783 13.7226 30.2226 13.4276 29.4195 13.4276H22.8631C22.0107 13.4276 21.224 13.067 20.6831 12.4441C20.1258 11.8049 19.8799 10.9525 20.011 10.0674L20.8306 4.80591C21.0273 3.88801 20.4044 2.85538 19.5193 2.56034C18.7161 2.2653 17.6835 2.69147 17.3229 3.21598L10.6026 13.2145L8.57007 11.854L15.2904 1.85553C16.323 0.314774 18.585 -0.422821 20.3552 0.24921C22.4041 0.921241 23.7154 3.1832 23.2564 5.28125L22.4533 10.4444C22.4369 10.5591 22.4369 10.7231 22.5516 10.8542C22.6336 10.9361 22.7483 10.9853 22.8794 10.9853H29.4358C31.0422 10.9853 32.4354 11.6573 33.2549 12.8211C34.0581 13.9521 34.222 15.4437 33.6975 16.8861L29.7801 28.8187C29.1736 31.1954 26.6494 33.1132 24.0104 33.1132Z" fill="#292D32"/>
<path d="M6.14663 31.3102H4.50753C1.47519 31.3102 0 29.8842 0 26.9666V10.9034C0 7.98583 1.47519 6.55981 4.50753 6.55981H6.14663C9.17896 6.55981 10.6542 7.98583 10.6542 10.9034V26.9666C10.6542 29.8842 9.17896 31.3102 6.14663 31.3102ZM4.50753 9.01846C2.72091 9.01846 2.45865 9.44463 2.45865 10.9034V26.9666C2.45865 28.4254 2.72091 28.8516 4.50753 28.8516H6.14663C7.93324 28.8516 8.1955 28.4254 8.1955 26.9666V10.9034C8.1955 9.44463 7.93324 9.01846 6.14663 9.01846H4.50753Z" fill="#292D32"/>
</svg>
